<?xml version="1.0" standalone="no"?>
<!DOCTYPE svg PUBLIC "-//W3C//DTD SVG 20010904//EN"
 "http://www.w3.org/TR/2001/REC-SVG-20010904/DTD/svg10.dtd">
<svg version="1.0" xmlns="http://www.w3.org/2000/svg"
 width="446.000000pt" height="449.000000pt" viewBox="0 0 446.000000 449.000000"
 preserveAspectRatio="xMidYMid meet">

<g transform="translate(0.000000,449.000000) scale(0.100000,-0.100000)"
fill="#000000" stroke="none">
<path d="M2080 4459 c-440 -23 -851 -181 -1220 -468 -176 -137 -373 -361 -503
-571 -165 -268 -292 -641 -326 -954 -12 -113 -5 -130 62 -152 92 -31 154 -17
339 72 151 72 167 78 240 82 93 5 101 -3 70 -76 -23 -53 -50 -72 -105 -72 -26
0 -75 -19 -157 -60 -202 -101 -318 -129 -419 -100 l-34 9 8 -92 c4 -51 12 -95
18 -99 18 -12 130 -9 168 3 19 6 91 38 161 71 103 49 140 61 193 66 l65 5 -1
-34 c0 -19 -5 -49 -12 -68 -11 -31 -17 -36 -70 -48 -32 -7 -122 -46 -202 -87
-99 -51 -163 -77 -206 -85 -34 -6 -64 -13 -67 -15 -2 -3 4 -37 13 -77 l18 -72
53 6 c38 4 91 24 188 73 96 48 149 68 186 72 l51 5 -3 -64 -3 -63 -48 -12
c-27 -7 -96 -40 -153 -73 -100 -58 -177 -91 -210 -91 -12 0 -14 -8 -8 -37 24
-136 58 -141 233 -34 165 100 221 90 221 -39 0 -25 -4 -28 -46 -33 -31 -3 -70
-20 -122 -52 -42 -27 -94 -57 -114 -69 -44 -24 -46 -37 -15 -90 37 -66 44 -66
144 -8 50 28 113 57 142 64 l51 11 -7 36 c-4 20 -7 49 -8 64 0 27 1 28 61 31
67 3 96 16 207 98 50 37 67 56 67 74 0 49 62 190 145 331 48 80 93 160 101
179 23 54 17 170 -16 327 -41 188 -47 283 -26 366 27 105 87 221 139 269 55
50 77 55 47 10 -67 -101 -95 -206 -94 -353 0 -125 11 -184 61 -340 55 -174 40
-245 -100 -457 -43 -64 -91 -147 -108 -184 -59 -130 -49 -251 35 -416 l44 -87
-96 -76 c-159 -125 -305 -183 -352 -140 -10 9 -26 39 -35 65 -9 27 -23 51 -32
54 -37 14 -151 -28 -222 -83 l-25 -19 39 -49 c21 -26 42 -52 45 -56 4 -5 38 8
74 27 85 45 127 47 167 7 30 -30 38 -64 18 -77 -7 -4 -41 -14 -77 -23 -95 -23
-99 -38 -33 -105 l54 -55 36 16 c95 41 101 41 137 -2 19 -21 34 -44 34 -50 0
-7 -19 -25 -42 -40 l-42 -28 54 -48 c30 -27 80 -62 111 -78 l55 -30 17 47 c10
26 47 94 83 152 113 180 129 215 143 318 7 50 15 92 17 92 2 0 13 -19 25 -42
48 -93 24 -188 -86 -349 -114 -166 -142 -259 -88 -296 26 -18 78 -43 88 -43 3
0 5 19 5 43 1 59 35 135 118 263 106 163 127 213 127 304 0 97 -24 147 -147
307 -50 65 -106 151 -125 190 -33 68 -35 78 -32 156 4 75 9 93 46 168 24 46
72 120 109 164 97 118 119 170 118 275 0 76 -6 103 -58 260 -71 215 -80 285
-47 405 26 94 87 225 129 275 26 31 124 97 109 74 -3 -5 -25 -39 -50 -75 -55
-83 -94 -196 -108 -316 -14 -118 0 -187 70 -343 70 -155 84 -208 79 -296 -5
-81 -21 -111 -163 -316 -92 -132 -120 -213 -113 -322 6 -92 39 -156 148 -286
44 -52 97 -127 116 -167 35 -70 36 -74 32 -165 -4 -105 -28 -168 -112 -298
-93 -144 -110 -186 -110 -279 l-1 -84 50 -17 c100 -34 90 -42 90 63 1 112 15
151 115 322 101 172 114 210 115 325 0 88 -3 99 -32 155 -18 33 -70 107 -117
165 -98 121 -133 183 -145 261 -18 110 18 205 143 377 140 194 144 279 25 565
-65 156 -79 213 -79 327 0 168 49 289 155 389 36 34 70 61 75 61 5 0 -16 -40
-48 -88 -78 -119 -97 -180 -97 -312 0 -126 14 -174 116 -417 112 -264 109
-322 -31 -537 -90 -137 -114 -187 -130 -258 -24 -107 11 -194 143 -357 127
-155 168 -282 136 -421 -5 -25 -53 -132 -107 -239 l-97 -194 0 -118 c0 -147 6
-156 108 -166 l67 -6 -22 49 c-27 62 -29 174 -4 259 10 33 53 132 96 220 99
201 113 245 108 332 -5 92 -34 151 -152 306 -123 164 -148 212 -148 288 0 71
26 131 112 259 35 51 75 121 91 155 15 34 35 67 44 75 21 17 64 15 126 -5 58
-20 140 -16 229 9 80 23 113 10 142 -57 12 -28 55 -95 95 -149 125 -168 149
-238 118 -344 -22 -77 -50 -122 -152 -252 -115 -148 -148 -216 -148 -308 1
-71 2 -75 98 -265 114 -228 142 -315 133 -427 -3 -39 -12 -88 -20 -107 -17
-41 -17 -41 68 -20 66 16 71 21 86 88 22 106 1 202 -81 358 -137 262 -134 255
-134 349 0 78 3 91 37 160 20 41 78 129 129 195 114 149 133 189 132 275 -1
92 -31 163 -132 310 -47 69 -93 148 -103 175 -36 103 -19 195 75 396 83 176
99 229 105 349 7 158 -29 277 -120 398 -26 34 -43 62 -38 62 5 0 41 -29 79
-65 106 -101 171 -243 171 -375 0 -84 -23 -174 -97 -389 -62 -179 -68 -203
-68 -276 0 -96 20 -140 126 -279 99 -130 133 -201 133 -285 1 -109 -38 -190
-182 -371 -101 -128 -126 -183 -125 -280 0 -94 19 -143 119 -312 98 -165 127
-247 122 -345 -4 -82 -14 -77 87 -43 l50 17 3 56 c4 75 -29 167 -98 277 -108
172 -119 193 -131 249 -25 121 20 236 171 441 111 148 124 182 118 294 -5 104
-37 174 -166 368 -102 155 -119 203 -103 300 10 58 46 157 87 240 35 70 54
161 54 266 0 154 -44 301 -125 413 -40 56 -35 61 22 20 55 -40 98 -97 138
-185 88 -190 87 -286 -10 -606 -40 -133 -46 -164 -42 -217 6 -79 43 -158 136
-288 39 -55 86 -129 104 -165 29 -58 32 -74 32 -150 0 -76 -3 -92 -32 -150
-18 -36 -73 -119 -122 -185 -137 -183 -145 -198 -149 -281 -5 -89 17 -147 113
-300 87 -139 127 -224 133 -285 2 -27 10 -49 16 -49 6 1 31 11 56 23 34 16 46
28 48 48 5 41 -34 131 -99 230 -111 169 -119 187 -122 275 -2 74 14 144 33
144 4 0 12 -34 17 -75 13 -88 50 -173 133 -300 61 -94 120 -205 120 -224 0
-13 85 37 155 92 28 21 50 44 50 50 0 7 -19 22 -42 35 -24 13 -43 29 -43 36 0
7 14 31 31 54 l30 41 69 -25 69 -26 36 28 c20 15 45 40 56 56 21 28 21 30 3
43 -20 15 -118 55 -134 55 -18 0 -11 47 11 74 28 36 75 34 171 -8 l78 -34 29
37 c30 39 55 81 49 86 -15 14 -212 105 -227 105 -25 0 -35 -14 -61 -82 -12
-32 -25 -60 -30 -63 -16 -10 -113 15 -174 45 -69 35 -239 168 -244 192 -2 9
17 56 42 105 102 203 83 308 -106 601 -43 67 -86 139 -95 160 -28 63 -21 168
21 306 42 141 61 266 53 353 -7 69 -52 215 -92 293 -14 27 -21 50 -17 50 17 0
87 -62 113 -100 37 -55 77 -184 89 -290 13 -116 1 -218 -41 -348 -53 -165 -35
-244 102 -454 85 -131 129 -223 138 -289 6 -46 11 -54 76 -110 89 -78 162
-113 217 -106 l41 5 -7 -74 -7 -74 34 0 c21 0 77 -21 146 -55 62 -30 114 -55
117 -55 9 0 64 94 64 111 0 10 -19 26 -47 41 -27 13 -82 46 -124 72 -46 28
-93 50 -118 53 -45 6 -47 10 -30 79 11 42 13 44 49 44 28 0 79 -20 180 -72
159 -80 161 -80 198 -8 28 56 29 90 2 90 -11 0 -89 36 -173 79 -83 43 -171 85
-195 92 l-43 12 3 56 3 56 52 0 c42 -1 68 -9 135 -45 140 -75 171 -89 221
-102 73 -19 87 -4 100 108 l5 41 -52 6 c-37 4 -97 29 -221 92 -112 57 -187 89
-220 93 l-49 7 -12 60 c-7 33 -10 63 -8 67 7 11 72 10 119 -3 22 -6 96 -37
165 -69 133 -62 210 -82 275 -71 47 7 53 21 54 130 1 66 -1 72 -16 66 -33 -14
-143 -17 -191 -6 -26 7 -109 41 -184 77 -75 36 -163 70 -195 76 -32 5 -68 14
-80 19 -24 9 -47 47 -57 95 -6 27 -4 32 16 38 77 20 138 3 326 -92 146 -73
157 -77 220 -77 51 0 78 6 116 25 l48 25 -6 80 c-58 711 -400 1285 -1006 1690
-391 260 -820 370 -1340 344z m185 -201 c18 -40 44 -99 58 -130 l26 -58 68 0
c94 0 203 -11 203 -21 0 -4 -45 -51 -100 -105 -55 -54 -100 -102 -100 -108 0
-9 87 -231 96 -244 1 -2 44 23 95 54 154 93 300 154 371 154 22 0 18 -21 -24
-129 -33 -83 -47 -161 -29 -161 6 0 58 18 116 40 100 38 224 64 213 44 -3 -5
-32 -56 -65 -114 -78 -135 -113 -220 -120 -287 -4 -35 -10 -53 -19 -53 -7 0
-47 13 -88 30 -238 94 -391 133 -587 151 -271 23 -606 -37 -881 -157 -42 -19
-80 -34 -86 -34 -5 0 -15 26 -22 57 -18 84 -72 205 -135 304 -30 47 -55 89
-55 93 0 23 176 -16 261 -59 74 -38 83 -35 76 26 -4 28 -22 87 -42 132 -20 45
-39 88 -42 95 -10 23 76 13 150 -18 40 -16 128 -63 197 -104 89 -52 129 -71
137 -64 19 16 59 106 81 184 l20 71 -105 93 c-57 51 -102 98 -100 104 2 6 17
12 33 13 16 1 77 5 135 8 l105 7 58 129 c32 71 60 129 63 129 2 0 19 -33 38
-72z m-1729 -869 c84 -66 143 -163 175 -287 10 -41 21 -77 23 -79 2 -3 53 13
113 35 126 46 235 67 301 57 62 -9 135 -41 130 -57 -3 -7 -38 -37 -80 -65 -81
-56 -232 -209 -289 -292 l-34 -50 -80 1 c-119 0 -155 -11 -410 -126 -66 -30
-92 -36 -148 -36 -59 0 -127 19 -127 35 0 2 44 73 99 157 54 84 115 183 135
219 81 148 124 325 110 455 -6 63 -6 64 18 64 14 0 43 -14 64 -31z m3485 7 c1
-6 0 -58 -1 -116 -1 -68 4 -130 14 -175 23 -97 97 -243 216 -424 112 -171 112
-168 30 -191 -76 -21 -118 -11 -300 76 -114 54 -149 66 -220 75 -47 6 -103 8
-126 5 l-40 -5 -54 74 c-64 90 -213 236 -295 289 -33 22 -62 41 -64 42 -9 7
26 38 57 51 45 19 192 18 265 -2 32 -8 93 -31 134 -50 42 -19 79 -35 83 -35 4
0 20 44 34 98 29 105 64 168 129 232 64 65 134 93 138 56z m-1668 -166 c82
-12 180 -56 226 -101 37 -37 70 -101 71 -135 0 -21 -3 -22 -84 -17 -141 9
-232 -21 -267 -89 -18 -34 -20 -55 -17 -129 2 -66 7 -93 20 -105 16 -16 19
-15 53 23 34 38 38 40 73 32 50 -12 125 -11 157 1 20 8 29 6 44 -9 48 -48 26
-183 -55 -349 -54 -111 -131 -194 -218 -237 -51 -25 -64 -27 -140 -23 -112 6
-173 36 -260 128 -106 113 -166 255 -166 396 0 46 5 68 19 85 18 22 21 23 56
10 27 -9 61 -11 120 -6 61 5 88 3 105 -7 19 -12 24 -10 42 12 18 22 20 34 14
110 -5 78 -9 87 -35 112 -40 36 -88 48 -193 48 -105 0 -115 12 -73 84 82 140
268 201 508 166z m-360 -355 c35 -16 68 -58 56 -70 -3 -2 -31 3 -63 11 -62 16
-100 12 -128 -13 -28 -25 -50 -9 -46 34 2 28 9 41 28 51 32 17 104 11 153 -13z
m621 5 c29 -11 44 -53 27 -74 -10 -12 -21 -11 -74 6 -58 18 -88 19 -144 2 -19
-5 -23 -2 -23 14 0 11 6 24 13 30 33 27 153 41 201 22z"/>
<path d="M2116 3614 c-140 -108 -139 -110 109 -106 109 1 203 6 208 11 9 9
-105 102 -179 146 l-40 24 -98 -75z"/>
<path d="M2119 2533 c-14 -16 -15 -15 41 -36 57 -21 58 -21 116 3 67 29 46 44
-61 46 -62 1 -88 -3 -96 -13z"/>
<path d="M2050 2385 c0 -14 88 -99 117 -114 57 -29 129 -5 193 65 l45 49 -60
2 c-195 8 -295 7 -295 -2z"/>
<path d="M3770 281 c0 -16 8 -20 38 -23 l37 -3 3 -107 c2 -100 4 -108 22 -108
19 0 20 7 20 110 l0 110 40 0 c33 0 40 3 40 20 0 19 -7 20 -100 20 -92 0 -100
-1 -100 -19z"/>
<path d="M4010 175 c0 -118 1 -125 20 -125 18 0 20 8 22 98 l3 97 25 -98 c23
-93 25 -98 49 -95 22 3 27 12 47 91 12 49 25 91 28 94 3 4 6 -37 6 -90 0 -90
1 -97 20 -97 19 0 20 7 20 126 l0 125 -37 -3 c-36 -3 -36 -4 -55 -73 -27 -102
-29 -105 -40 -65 -39 144 -37 140 -74 140 l-34 0 0 -125z"/>
</g>
</svg>
